<svg width="57" height="57" viewBox="0 0 57 57" fill="none" xmlns="http://www.w3.org/2000/svg">
<circle cx="28.5" cy="28.5" r="28.5" fill="#0F3137"/>
<path d="M12.6032 36.2841H35.2061C35.4089 36.2841 35.6048 36.2132 35.7602 36.0839C35.9773 35.9021 40.9296 31.6418 41.2316 22.4456H16.9565C16.6556 30.7933 12.0948 34.717 12.0474 34.7561C11.7696 34.9909 11.6673 35.3744 11.7923 35.7157C11.9165 36.056 12.24 36.2841 12.6032 36.2841Z" fill="#6892AF"/>
<path d="M40.3955 17.2562H36.071V16.3913C36.071 15.9069 35.6904 15.5264 35.2061 15.5264C34.7217 15.5264 34.3412 15.9069 34.3412 16.3913V17.2562H29.959V16.3913C29.959 15.9069 29.5784 15.5264 29.0941 15.5264C28.6097 15.5264 28.2292 15.9069 28.2292 16.3913V17.2562H23.9046V16.3913C23.9046 15.9069 23.5241 15.5264 23.0397 15.5264C22.5554 15.5264 22.1748 15.9069 22.1748 16.3913V17.2562H17.8503C17.3659 17.2562 16.9854 17.6367 16.9854 18.1211V20.7158H41.2604V18.1211C41.2604 17.6367 40.8799 17.2562 40.3955 17.2562Z" fill="#6892AF"/>
<path d="M36.8709 37.4101C36.4012 37.8011 35.8117 38.014 35.2061 38.014H16.9854V40.6087C16.9854 41.0868 17.3722 41.4736 17.8503 41.4736H40.3955C40.8736 41.4736 41.2604 41.0868 41.2604 40.6087V30.9133C39.5929 35.0044 37.2659 37.0794 36.8709 37.4101Z" fill="#6892AF"/>
</svg>
